<svg xmlns="http://www.w3.org/2000/svg" width="440" height="280" viewBox="0 0 440 280" fill="none">
  <rect width="440" height="280" fill="#fafaf9"/>
  <rect x="28" y="28" width="384" height="224" rx="18" fill="#ffffff" stroke="#e5e5e7"/>
  <path d="M72 55L47 64V89C47 109 57 124 72 130C87 124 97 109 97 89V64L72 55Z" stroke="#0a0a0a" stroke-width="5" stroke-linejoin="round"/>
  <rect x="60" y="88" width="25" height="6" rx="1.5" fill="#0a0a0a"/>
  <circle cx="64" cy="91" r="2" fill="#34c759"/>
  <text x="116" y="75" fill="#0a0a0a" font-family="-apple-system, BlinkMacSystemFont, 'Inter', sans-serif" font-size="18" font-weight="700">Agent Browser Gateway</text>
  <text x="116" y="99" fill="#6e6e73" font-family="-apple-system, BlinkMacSystemFont, 'Inter', sans-serif" font-size="12">Local browser access for AI agents</text>
  <text x="48" y="161" fill="#0a0a0a" font-family="-apple-system, BlinkMacSystemFont, 'Inter', sans-serif" font-size="32" font-weight="800">Share one tab.</text>
  <text x="48" y="197" fill="#0a0a0a" font-family="-apple-system, BlinkMacSystemFont, 'Inter', sans-serif" font-size="32" font-weight="800">Keep control.</text>
  <rect x="48" y="216" width="105" height="24" rx="12" fill="#eef8f1"/>
  <text x="61" y="233" fill="#166534" font-family="-apple-system, BlinkMacSystemFont, 'Inter', sans-serif" font-size="11" font-weight="700">Per-tab consent</text>
  <rect x="163" y="216" width="92" height="24" rx="12" fill="#f5f5f7"/>
  <text x="177" y="233" fill="#0a0a0a" font-family="-apple-system, BlinkMacSystemFont, 'Inter', sans-serif" font-size="11" font-weight="700">Zero telemetry</text>
  <rect x="265" y="216" width="98" height="24" rx="12" fill="#f5f5f7"/>
  <text x="279" y="233" fill="#0a0a0a" font-family="-apple-system, BlinkMacSystemFont, 'Inter', sans-serif" font-size="11" font-weight="700">Local bridge</text>
  <rect x="287" y="118" width="84" height="72" rx="10" fill="#0a0a0a"/>
  <rect x="302" y="134" width="54" height="8" rx="4" fill="#ffffff"/>
  <rect x="302" y="151" width="37" height="8" rx="4" fill="#34c759"/>
  <rect x="302" y="168" width="48" height="8" rx="4" fill="#ffffff" opacity=".45"/>
</svg>
